<svg xmlns="http://www.w3.org/2000/svg" viewBox="0 0 190 148.94"><defs><style>.cls-1{fill:#fff;}</style></defs><title>svg_アセット 1support</title><g id="レイヤー_2" data-name="レイヤー 2"><g id="レイヤー_1-2" data-name="レイヤー 1"><rect class="cls-1" x="63.11" y="67.38" width="7.69" height="23.94" transform="translate(-36.5 70.59) rotate(-45)"/><rect class="cls-1" x="79.5" y="54.22" width="7.69" height="39.52" transform="translate(-27.9 80.6) rotate(-45)"/><path class="cls-1" d="M85.7,3.63q-35-12.46-65.42,17.91Q6,35.81,1.64,52.4A54.64,54.64,0,0,0,.08,69,62.65,62.65,0,0,0,3,85.57Q8.41,101.89,22.54,116a165,165,0,0,0,25.54,21.17L99.9,85.37l-5.44-5.44L48.08,126.31a152.1,152.1,0,0,1-21.56-18.12A66.18,66.18,0,0,1,13,89.22q-10.16-21.3-.46-42.8a65.26,65.26,0,0,1,13.6-19.57Q45.56,7.41,68.38,7.94,90,8.48,109.25,27.71c.57.57,1.09,1.11,1.63,1.67l5.72-5.72Q102.41,9.6,85.7,3.63Z"/><path class="cls-1" d="M104.08,33.42l-2.72-2.72a48,48,0,0,0-8.16-6.57q-13.68-8.62-26.48-8.56a41.17,41.17,0,0,0-17.78,4.51A63.22,63.22,0,0,0,32.09,32.29Q21.74,42.64,18,54.52,10,79.19,30.7,99.9a111.27,111.27,0,0,0,17.78,14.86L74.55,88.69,68.84,83l-21,21L41.43,98.7l-4.58-4.06A43.93,43.93,0,0,1,25,77.1Q17.44,57.71,37.73,37.4q9.75-9.75,20.51-12.67a33.47,33.47,0,0,1,20.64,1.14A55.19,55.19,0,0,1,98.94,39c.38.39.75.78,1.13,1.16l5.37-5.37Z"/><path class="cls-1" d="M93.26,44.77q-8-8-16.19-11-17.64-6.49-33.3,9.16-12.62,12.6-12.08,24T44.17,90.28l1.52,1.53,2.19,1.26,5.5-5.5-5.51-4.84-.06,0q-7.23-7.23-7.76-14.26-.73-10,8.23-19,18.63-18.63,40.61,1.83l5.49-5.49Z"/><rect class="cls-1" x="42.79" y="77.26" width="21.83" height="7.69" transform="translate(-41.62 61.74) rotate(-45)"/><rect class="cls-1" x="69.45" y="50.61" width="21.83" height="7.69" transform="translate(-14.97 72.78) rotate(-45)"/><rect class="cls-1" x="95.24" y="24.82" width="21.83" height="7.69" transform="translate(10.83 83.46) rotate(-45)"/><rect class="cls-1" x="119.2" y="57.61" width="7.69" height="23.94" transform="translate(-13.16 107.38) rotate(-45)"/><rect class="cls-1" x="102.81" y="55.19" width="7.69" height="39.52" transform="translate(-21.76 97.37) rotate(-45)"/><path class="cls-1" d="M104.3,145.31q35,12.47,65.42-17.92Q184,113.13,188.36,96.54a54.68,54.68,0,0,0,1.56-16.62A62.5,62.5,0,0,0,187,63.37q-5.44-16.32-19.58-30.46a165,165,0,0,0-25.54-21.16L90.1,63.57,95.54,69l46.38-46.38a152.68,152.68,0,0,1,21.56,18.11,66.22,66.22,0,0,1,13.54,19q10.15,21.3.46,42.79a65.14,65.14,0,0,1-13.6,19.57Q144.44,141.52,121.62,141q-21.63-.53-40.87-19.77c-.57-.56-1.09-1.11-1.63-1.66l-5.72,5.71Q87.59,139.32,104.3,145.31Z"/><path class="cls-1" d="M85.92,115.52l2.72,2.72a47.42,47.42,0,0,0,8.16,6.56q13.68,8.63,26.48,8.56a40.89,40.89,0,0,0,17.78-4.51,62.78,62.78,0,0,0,16.85-12.21Q168.26,106.29,172,94.42,180,69.73,159.3,49a112.35,112.35,0,0,0-17.78-14.86L115.45,60.24,121.16,66l21-21,6.38,5.32,4.58,4A44.07,44.07,0,0,1,165,71.83q7.57,19.41-12.72,39.7-9.75,9.77-20.51,12.67a33.47,33.47,0,0,1-20.64-1.14A55.06,55.06,0,0,1,91.06,109.9c-.38-.38-.75-.77-1.13-1.16l-5.37,5.38C85,114.58,85.46,115.05,85.92,115.52Z"/><path class="cls-1" d="M96.74,104.17q8,8,16.19,11,17.64,6.51,33.3-9.15,12.61-12.61,12.08-24T145.83,58.66l-1.52-1.53-2.19-1.26-5.5,5.5,5.51,4.84.06-.06q7.23,7.25,7.76,14.27.74,10-8.23,19Q123.09,118,101.11,97.56l-5.49,5.49Z"/><rect class="cls-1" x="125.37" y="63.98" width="21.83" height="7.69" transform="translate(-8.04 116.24) rotate(-45)"/><rect class="cls-1" x="98.72" y="90.63" width="21.83" height="7.69" transform="translate(-34.69 105.2) rotate(-45)"/><rect class="cls-1" x="73.85" y="115.5" width="21.83" height="7.69" transform="translate(-59.56 94.9) rotate(-45)"/></g></g></svg>